# xmcd
#
# Track frame offsets:
#	150
#	7531
#	24485
#	37510
#	59643
#	77580
#	95354
#
# Disc length: 1672 seconds
#
# Revision: 1
# Processed by: cddbd v1.5.1PL2 Copyright (c) Steve Scherf et al.
# Submitted via: VUPlayer 2.4
#
DISCID=3b068607
DTITLE=Vdelli - Dog Hill Blues Sessions
DYEAR=2005
DGENRE=Blues
TTITLE0=Gone To The Dogs
TTITLE1=Kingsize Rosewood Bed
TTITLE2=Night Train
TTITLE3=Help Me
TTITLE4=Why I Sing The Blues
TTITLE5=Sometimes I Wonder
TTITLE6=Smokestack Lightning/Commit A Crime
EXTD=Michael Vdelli - voc, g\nTony Gibbs - b\nRic Whittle - dr\n\n(c) 2005 NewTo
EXTD=wn GbR
EXTT0=
EXTT1=
EXTT2=
EXTT3=
EXTT4=
EXTT5=
EXTT6=
PLAYORDER=
